<mxfile host="app.diagrams.net" modified="2024-06-18T02:14:57.655Z" agent="Mozilla/5.0 (Windows NT 10.0; Win64; x64) AppleWebKit/537.36 (KHTML, like Gecko) Chrome/109.0.0.0 Safari/537.36" etag="RjoNnBPNDYr9uIdOEOMV" version="24.5.5" type="github">
  <diagram name="Page-1" id="Zg66ymO3-r_jwRBVFKkm">
    <mxGraphModel dx="1434" dy="707" grid="1" gridSize="10" guides="1" tooltips="1" connect="1" arrows="1" fold="1" page="1" pageScale="1" pageWidth="850" pageHeight="1100" math="0" shadow="0">
      <root>
        <mxCell id="0" />
        <mxCell id="1" parent="0" />
        <mxCell id="2JiKV55ibArTTgtWh_bm-1" value="PatternTest" style="swimlane;fontStyle=1;align=center;verticalAlign=top;childLayout=stackLayout;horizontal=1;startSize=29.2;horizontalStack=0;resizeParent=1;resizeParentMax=0;resizeLast=0;collapsible=0;marginBottom=0;" parent="1" vertex="1">
          <mxGeometry x="80" y="562.9" width="158" height="66.2" as="geometry" />
        </mxCell>
        <mxCell id="2JiKV55ibArTTgtWh_bm-2" style="line;strokeWidth=1;fillColor=none;align=left;verticalAlign=middle;spacingTop=-1;spacingLeft=3;spacingRight=3;rotatable=0;labelPosition=right;points=[];portConstraint=eastwest;strokeColor=inherit;" parent="2JiKV55ibArTTgtWh_bm-1" vertex="1">
          <mxGeometry y="29.2" width="158" height="8" as="geometry" />
        </mxCell>
        <mxCell id="2JiKV55ibArTTgtWh_bm-3" value="+void main(String[])" style="text;strokeColor=none;fillColor=none;align=left;verticalAlign=top;spacingLeft=4;spacingRight=4;overflow=hidden;rotatable=0;points=[[0,0.5],[1,0.5]];portConstraint=eastwest;" parent="2JiKV55ibArTTgtWh_bm-1" vertex="1">
          <mxGeometry y="37.2" width="158" height="29" as="geometry" />
        </mxCell>
        <mxCell id="2JiKV55ibArTTgtWh_bm-4" value="&lt;&lt;Client&gt;&gt;&#xa;LegacyBank" style="swimlane;fontStyle=1;align=center;verticalAlign=top;childLayout=stackLayout;horizontal=1;startSize=48;horizontalStack=0;resizeParent=1;resizeParentMax=0;resizeLast=0;collapsible=0;marginBottom=0;" parent="1" vertex="1">
          <mxGeometry x="176" y="290" width="185" height="88" as="geometry" />
        </mxCell>
        <mxCell id="2JiKV55ibArTTgtWh_bm-5" style="line;strokeWidth=1;fillColor=none;align=left;verticalAlign=middle;spacingTop=-1;spacingLeft=3;spacingRight=3;rotatable=0;labelPosition=right;points=[];portConstraint=eastwest;strokeColor=inherit;" parent="2JiKV55ibArTTgtWh_bm-4" vertex="1">
          <mxGeometry y="48" width="185" height="8" as="geometry" />
        </mxCell>
        <mxCell id="2JiKV55ibArTTgtWh_bm-6" value="+void process(Payment)" style="text;strokeColor=none;fillColor=none;align=left;verticalAlign=top;spacingLeft=4;spacingRight=4;overflow=hidden;rotatable=0;points=[[0,0.5],[1,0.5]];portConstraint=eastwest;" parent="2JiKV55ibArTTgtWh_bm-4" vertex="1">
          <mxGeometry y="56" width="185" height="32" as="geometry" />
        </mxCell>
        <mxCell id="2JiKV55ibArTTgtWh_bm-7" value="&lt;&lt;interface&gt;&gt;&#xa;&lt;&lt;Target&gt;&gt;&#xa;Payment" style="swimlane;fontStyle=1;align=center;verticalAlign=top;childLayout=stackLayout;horizontal=1;startSize=54.857142857142854;horizontalStack=0;resizeParent=1;resizeParentMax=0;resizeLast=0;collapsible=0;marginBottom=0;" parent="1" vertex="1">
          <mxGeometry x="310" y="120" width="259" height="89.85714285714286" as="geometry" />
        </mxCell>
        <mxCell id="2JiKV55ibArTTgtWh_bm-8" style="line;strokeWidth=1;fillColor=none;align=left;verticalAlign=middle;spacingTop=-1;spacingLeft=3;spacingRight=3;rotatable=0;labelPosition=right;points=[];portConstraint=eastwest;strokeColor=inherit;" parent="2JiKV55ibArTTgtWh_bm-7" vertex="1">
          <mxGeometry y="54.857142857142854" width="259" height="8" as="geometry" />
        </mxCell>
        <mxCell id="2JiKV55ibArTTgtWh_bm-9" value="+void makePayment(String,String)" style="text;strokeColor=none;fillColor=none;align=left;verticalAlign=top;spacingLeft=4;spacingRight=4;overflow=hidden;rotatable=0;points=[[0,0.5],[1,0.5]];portConstraint=eastwest;" parent="2JiKV55ibArTTgtWh_bm-7" vertex="1">
          <mxGeometry y="62.857142857142854" width="259" height="27" as="geometry" />
        </mxCell>
        <mxCell id="2JiKV55ibArTTgtWh_bm-10" value="&lt;&lt;Adaptee&gt;&gt;&#xa;PaymentServiceV2" style="swimlane;fontStyle=1;align=center;verticalAlign=top;childLayout=stackLayout;horizontal=1;startSize=48;horizontalStack=0;resizeParent=1;resizeParentMax=0;resizeLast=0;collapsible=0;marginBottom=0;" parent="1" vertex="1">
          <mxGeometry x="560" y="250" width="260" height="88" as="geometry" />
        </mxCell>
        <mxCell id="2JiKV55ibArTTgtWh_bm-11" style="line;strokeWidth=1;fillColor=none;align=left;verticalAlign=middle;spacingTop=-1;spacingLeft=3;spacingRight=3;rotatable=0;labelPosition=right;points=[];portConstraint=eastwest;strokeColor=inherit;" parent="2JiKV55ibArTTgtWh_bm-10" vertex="1">
          <mxGeometry y="48" width="260" height="8" as="geometry" />
        </mxCell>
        <mxCell id="2JiKV55ibArTTgtWh_bm-12" value="+voidÂ makeJSONPayment(String,String)" style="text;strokeColor=none;fillColor=none;align=left;verticalAlign=top;spacingLeft=4;spacingRight=4;overflow=hidden;rotatable=0;points=[[0,0.5],[1,0.5]];portConstraint=eastwest;" parent="2JiKV55ibArTTgtWh_bm-10" vertex="1">
          <mxGeometry y="56" width="260" height="32" as="geometry" />
        </mxCell>
        <mxCell id="2JiKV55ibArTTgtWh_bm-13" value="&lt;&lt;Adapter&gt;&gt;&#xa;PaymentObjectAdapter" style="swimlane;fontStyle=1;align=center;verticalAlign=top;childLayout=stackLayout;horizontal=1;startSize=47.333333333333336;horizontalStack=0;resizeParent=1;resizeParentMax=0;resizeLast=0;collapsible=0;marginBottom=0;" parent="1" vertex="1">
          <mxGeometry x="340" y="446.87" width="294" height="151.33333333333334" as="geometry" />
        </mxCell>
        <mxCell id="2JiKV55ibArTTgtWh_bm-14" value="-paymentServiceV2: PaymentServiceV2" style="text;strokeColor=none;fillColor=none;align=left;verticalAlign=top;spacingLeft=4;spacingRight=4;overflow=hidden;rotatable=0;points=[[0,0.5],[1,0.5]];portConstraint=eastwest;" parent="2JiKV55ibArTTgtWh_bm-13" vertex="1">
          <mxGeometry y="47.333333333333336" width="294" height="32" as="geometry" />
        </mxCell>
        <mxCell id="2JiKV55ibArTTgtWh_bm-15" style="line;strokeWidth=1;fillColor=none;align=left;verticalAlign=middle;spacingTop=-1;spacingLeft=3;spacingRight=3;rotatable=0;labelPosition=right;points=[];portConstraint=eastwest;strokeColor=inherit;" parent="2JiKV55ibArTTgtWh_bm-13" vertex="1">
          <mxGeometry y="79.33333333333334" width="294" height="8" as="geometry" />
        </mxCell>
        <mxCell id="2JiKV55ibArTTgtWh_bm-16" value="+void makePayment(String,String)" style="text;strokeColor=none;fillColor=none;align=left;verticalAlign=top;spacingLeft=4;spacingRight=4;overflow=hidden;rotatable=0;points=[[0,0.5],[1,0.5]];portConstraint=eastwest;" parent="2JiKV55ibArTTgtWh_bm-13" vertex="1">
          <mxGeometry y="87.33333333333334" width="294" height="32" as="geometry" />
        </mxCell>
        <mxCell id="2JiKV55ibArTTgtWh_bm-17" value="-String converter(xmlData: String)" style="text;strokeColor=none;fillColor=none;align=left;verticalAlign=top;spacingLeft=4;spacingRight=4;overflow=hidden;rotatable=0;points=[[0,0.5],[1,0.5]];portConstraint=eastwest;" parent="2JiKV55ibArTTgtWh_bm-13" vertex="1">
          <mxGeometry y="119.33333333333334" width="294" height="32" as="geometry" />
        </mxCell>
        <mxCell id="2JiKV55ibArTTgtWh_bm-18" value="New Flow using Object Adapter" style="align=left;spacingLeft=4;" parent="1" vertex="1">
          <mxGeometry x="305" y="55" width="241" height="34" as="geometry" />
        </mxCell>
        <mxCell id="2JiKV55ibArTTgtWh_bm-19" value="" style="curved=1;dashed=1;startArrow=none;endArrow=none;exitX=0.11;exitY=1;entryX=0.5;entryY=0;rounded=0;" parent="1" source="2JiKV55ibArTTgtWh_bm-7" target="2JiKV55ibArTTgtWh_bm-4" edge="1">
          <mxGeometry relative="1" as="geometry">
            <Array as="points">
              <mxPoint x="268" y="299" />
            </Array>
          </mxGeometry>
        </mxCell>
        <mxCell id="2JiKV55ibArTTgtWh_bm-20" value="implements" style="curved=1;dashed=1;startArrow=block;startSize=16;startFill=0;endArrow=none;exitX=0.869;exitY=1.116;entryX=0.5;entryY=0;rounded=0;exitDx=0;exitDy=0;exitPerimeter=0;" parent="1" target="2JiKV55ibArTTgtWh_bm-13" edge="1">
          <mxGeometry relative="1" as="geometry">
            <Array as="points">
              <mxPoint x="487" y="357.81" />
            </Array>
            <mxPoint x="485.0709999999999" y="209.85914285714284" as="sourcePoint" />
          </mxGeometry>
        </mxCell>
        <mxCell id="O9XXzeADfH-jaDmMMGaJ-2" value="" style="endArrow=classic;html=1;rounded=0;exitX=0.731;exitY=-0.02;exitDx=0;exitDy=0;exitPerimeter=0;" parent="1" source="2JiKV55ibArTTgtWh_bm-13" edge="1">
          <mxGeometry width="50" height="50" relative="1" as="geometry">
            <mxPoint x="620" y="386.87" as="sourcePoint" />
            <mxPoint x="670" y="336.87" as="targetPoint" />
          </mxGeometry>
        </mxCell>
        <mxCell id="O9XXzeADfH-jaDmMMGaJ-6" value="&lt;span style=&quot;text-align: left; white-space: nowrap;&quot;&gt;paymentServiceV2&lt;/span&gt;" style="text;html=1;align=center;verticalAlign=middle;whiteSpace=wrap;rounded=0;" parent="1" vertex="1">
          <mxGeometry x="684" y="380" width="60" height="30" as="geometry" />
        </mxCell>
      </root>
    </mxGraphModel>
  </diagram>
</mxfile>
